<svg xmlns="http://www.w3.org/2000/svg" xmlns:xlink="http://www.w3.org/1999/xlink" version="1.1">
    <polygon fill="#FFF" stroke="#000" stroke-width="2" points="354.997,600 355.826,631.663 358.311,663.24 362.446,694.643 368.218,725.787 375.612,756.586 384.608,786.956 395.181,816.814 407.302,846.077 420.939,874.665 436.052,902.501 452.602,929.508 470.543,955.612 489.825,980.74 510.395,1004.83 532.198,1027.8 555.174,1049.6 579.259,1070.18 604.388,1089.46 630.492,1107.4 657.499,1123.95 685.335,1139.06 713.923,1152.7 743.186,1164.82 773.044,1175.39 803.414,1184.39 834.213,1191.78 865.357,1197.55 896.76,1201.69 928.336,1204.17 960,1205 991.663,1204.17 1023.24,1201.69 1054.64,1197.55 1085.79,1191.78 1116.59,1184.39 1146.96,1175.39 1176.81,1164.82 1206.08,1152.7 1234.67,1139.06 1262.5,1123.95 1289.51,1107.4 1315.61,1089.46 1340.74,1070.17 1364.83,1049.6 1387.8,1027.8 1409.6,1004.83 1430.17,980.74 1449.46,955.611 1467.4,929.508 1483.95,902.501 1499.06,874.665 1512.7,846.076 1524.82,816.813 1535.39,786.956 1544.39,756.586 1551.78,725.787 1557.55,694.643 1561.69,663.24 1564.17,631.663 1565,600 1564.17,568.337 1561.69,536.76 1557.55,505.357 1551.78,474.213 1544.39,443.414 1535.39,413.044 1524.82,383.187 1512.7,353.924 1499.06,325.335 1483.95,297.499 1467.4,270.493 1449.46,244.389 1430.17,219.261 1409.6,195.175 1387.8,172.2 1364.82,150.397 1340.74,129.826 1315.61,110.544 1289.51,92.6036 1262.5,76.054 1234.66,60.9404 1206.08,47.3044 1176.81,35.1832 1146.96,24.6102 1116.59,15.6143 1085.79,8.22009 1054.64,2.44794 1023.24,-1.68634 991.663,-4.17139 960,-5.00049 928.337,-4.17133 896.76,-1.68622 865.357,2.44812 834.213,8.22021 803.414,15.6144 773.045,24.6104 743.187,35.1833 713.924,47.3045 685.336,60.9406 657.5,76.0543 630.493,92.604 604.39,110.544 579.261,129.826 555.176,150.397 532.2,172.2 510.397,195.176 489.826,219.261 470.544,244.39 452.604,270.493 436.055,297.5 420.941,325.336 407.305,353.924 395.184,383.187 384.611,413.045 375.615,443.414 368.221,474.213 362.448,505.357 358.314,536.76 355.829,568.337 "></polygon>
    <circle r="50.000000" cx="960.000000" cy="600.000000" fill="#FFF" stroke="#000" stroke-width="2"></circle>
</svg>
